<svg xmlns="http://www.w3.org/2000/svg" viewBox="0 0 158.409 46.751"><defs><style>.cls-1,.cls-3{fill:#fff}.cls-3{opacity:.4}</style><clipPath id="clip-path"><path id="Rectangle_43" data-name="Rectangle 43" d="M0 0h42.632v46.751H0z"/></clipPath></defs><g id="Group_482" data-name="Group 482" transform="translate(0 13.514)"><path id="Path_981" data-name="Path 981" class="cls-1" d="M8.772 0H3.053v-21.156h5.719zM2.365-28.079A3.469 3.469 0 0 1 3.4-30.594a3.363 3.363 0 0 1 2.494-1.054 3.4 3.4 0 0 1 2.494 1.032 3.449 3.449 0 0 1 1.032 2.537 3.348 3.348 0 0 1-1.032 2.451A3.4 3.4 0 0 1 5.891-24.6 3.4 3.4 0 0 1 3.4-25.628a3.348 3.348 0 0 1-1.035-2.451zm18.189 21.93a5.218 5.218 0 0 0 3.827 1.591 5.147 5.147 0 0 0 3.806-1.591 6.034 6.034 0 0 0 1.569-4.429 6.034 6.034 0 0 0-1.569-4.429 5.147 5.147 0 0 0-3.806-1.593 5.147 5.147 0 0 0-3.806 1.591 6.034 6.034 0 0 0-1.569 4.429 6.084 6.084 0 0 0 1.548 4.431zm-4.128-12.47a10.793 10.793 0 0 1 7.955-3.181 10.722 10.722 0 0 1 7.933 3.182 10.938 10.938 0 0 1 3.16 8.041 10.938 10.938 0 0 1-3.16 8.041A10.722 10.722 0 0 1 24.381.645a10.722 10.722 0 0 1-7.934-3.182 10.938 10.938 0 0 1-3.161-8.041 10.978 10.978 0 0 1 3.14-8.041zM49.794-26.4a3.359 3.359 0 0 0-2.085.667 2.654 2.654 0 0 0-.882 2.257v2.322H51.6v4.9h-4.773V0h-5.762v-16.254h-3.526v-4.9h3.526v-2.408a7.864 7.864 0 0 1 2.085-5.719 7.457 7.457 0 0 1 5.611-2.15A7.174 7.174 0 0 1 51.6-31v4.816a6.491 6.491 0 0 0-1.806-.216zm18.4 5.16v5.762a8.751 8.751 0 0 0-1.72-.172 5.582 5.582 0 0 0-3.956 1.4q-1.505 1.4-1.505 4.579V0H55.3v-21.156h5.547v3.139q1.548-3.311 6.02-3.311.471 0 1.333.086zM77.959 0H72.24v-21.156h5.46v2.58a5.7 5.7 0 0 1 2.58-2.322 8.153 8.153 0 0 1 3.612-.86q4.6 0 6.278 3.526a7.481 7.481 0 0 1 6.708-3.526 7.773 7.773 0 0 1 5.439 2.021q2.215 2.021 2.215 6.02V0h-5.546v-12.556a4.353 4.353 0 0 0-.925-2.9 3.478 3.478 0 0 0-2.816-1.1 3.621 3.621 0 0 0-2.838 1.2 4.293 4.293 0 0 0-1.075 2.967V0h-5.676v-12.556a4.288 4.288 0 0 0-.946-2.9 3.49 3.49 0 0 0-2.8-1.1 3.7 3.7 0 0 0-2.881 1.183 4.273 4.273 0 0 0-1.075 2.988z" transform="translate(53.876 23.289)"/><g id="Group_471" data-name="Group 471" transform="translate(0 -13.514)"><g id="Group_470" data-name="Group 470"><g id="Group_469" data-name="Group 469" clip-path="url(#clip-path)"><path id="Path_959" data-name="Path 959" class="cls-3" d="M10.016 62.737a5.921 5.921 0 0 1-5.848-5.062L.364 31.2a5.873 5.873 0 0 1 5-6.665l7.2-1.038.66 4.464-7.2 1.069a1.357 1.357 0 0 0-1.164 1.544l3.8 26.441a1.374 1.374 0 0 0 1.54 1.163l19.964-2.861a1.1 1.1 0 0 0 .943-1.258l-.252-1.635 4.5-.66.252 1.635a5.71 5.71 0 0 1-4.81 6.414l-19.963 2.892c-.283 0-.566.031-.817.031zm0 0" transform="translate(-.207 -16.112)"/></g></g><path id="Path_960" data-name="Path 960" class="cls-1" d="M60.306 38.3h-20a5.9 5.9 0 0 1-5.906-5.912V6.011A5.9 5.9 0 0 1 40.311.1h20a5.9 5.9 0 0 1 5.911 5.911v26.377a5.9 5.9 0 0 1-5.916 5.912zm-20-33.64a1.342 1.342 0 0 0-1.352 1.352v26.376a1.342 1.342 0 0 0 1.352 1.352h20a1.342 1.342 0 0 0 1.352-1.352V6.011a1.342 1.342 0 0 0-1.352-1.352zm0 0" transform="translate(-23.585 -.069)"/><path id="Path_961" data-name="Path 961" class="cls-3" d="M79.921 63.7a4.81 4.81 0 0 1-9.621 0zm0 0" transform="translate(-48.198 -43.673)"/><path id="Path_962" data-name="Path 962" class="cls-3" d="M64.047 45.323a1.823 1.823 0 1 1-1.824-1.823 1.825 1.825 0 0 1 1.824 1.823zm0 0" transform="translate(-41.41 -29.824)"/><path id="Path_963" data-name="Path 963" class="cls-3" d="M101.647 45.323a1.824 1.824 0 1 1-1.824-1.823 1.825 1.825 0 0 1 1.824 1.823zm0 0" transform="translate(-67.189 -29.824)"/></g></g></svg>